#!OML:ASF F:\VICON\USERDATA\INSTALL\rory3\rory3.ASF
:FULLY-SPECIFIED
:DEGREES
316
root -6.31849 15.4717 3.81558 76.5992 40.4115 -45.8426
lowerback 21.051 -3.8169 -7.74501
upperback -2.45925 -7.43178 -3.0606
thorax -14.1153 -2.86269 3.26963
lowerneck -32.8547 3.92659 0.417668
upperneck 7.04825 3.50309 12.3635
head 7.08909 3.20952 4.73902
rclavicle -6.36111e-014 0
rhumerus 5.60786 -33.4332 21.5152
rradius 32.4303
rwrist 1.65564
rhand -29.0209 -62.6644
rfingers 7.12502
rthumb -2.37187 -1347.37
lclavicle -6.36111e-014 0
lhumerus 59.8486 29.4876 25.0719
lradius 20.8123
lwrist 4.59407
lhand -54.7697 286.524
lfingers 7.12502
lthumb -27.1599 -45.4108
rfemur -33.8894 -11.0565 45.0914
rtibia 61.4721
rfoot -10.9014 -29.8662
rtoes -5.0554
lfemur -105.555 26.4515 7.24691
ltibia 46.6342
lfoot -28.6671 23.8815
ltoes 6.86883
317
root -6.36982 15.5153 3.66048 76.5116 38.9119 -44.0339
lowerback 22.1383 -4.31185 -7.77708
upperback -2.12852 -8.23795 -3.66272
thorax -14.377 -3.22238 2.93834
lowerneck -33.4198 3.99896 0.0860892
upperneck 7.5839 3.56399 13.0953
head 7.33986 3.34606 5.10164
rclavicle -2.8625e-014 1.59028e-014
rhumerus 3.43431 -32.0928 20.8062
rradius 32.9875
rwrist 0.649649
rhand -29.9566 -65.1879
rfingers 7.12502
rthumb -3.2755 -1344.86
lclavicle -2.8625e-014 1.59028e-014
lhumerus 56.6626 29.153 20.9455
lradius 21.4677
lwrist 7.03638
lhand -53.8949 295.133
lfingers 7.12502
lthumb -26.3227 -36.6732
rfemur -34.39 -12.0867 45.8682
rtibia 59.7434
rfoot -8.17034 -28.413
rtoes -2.488
lfemur -106.141 24.9839 4.5082
ltibia 47.0027
lfoot -28.2346 22.763
ltoes 6.92003
318
root -6.42166 15.5604 3.50663 76.062 37.4255 -42.7121
lowerback 23.221 -4.35537 -8.0177
upperback -1.63532 -8.45735 -4.05456
thorax -14.4304 -3.30628 2.77491
lowerneck -34.1996 3.61127 -0.542758
upperneck 7.53189 3.15574 13.9432
head 7.45652 3.24755 5.47607
rclavicle 1.36764e-013 -2.54444e-014
rhumerus 0.705182 -32.0635 20.9137
rradius 33.1978
rwrist 2.40345
rhand -27.9829 -61.9881
rfingers 7.12502
rthumb -1.3694 -1348.04
lclavicle 1.36764e-013 -2.54444e-014
lhumerus 54.6783 29.1476 18.7414
lradius 22.1188
lwrist 8.52023
lhand -53.4379 301.79
lfingers 7.12502
lthumb -25.8852 -29.9517
rfemur -34.6877 -12.7808 46.5271
rtibia 58.0525
rfoot -7.28138 -27.95
rtoes -3.03847
lfemur -106.17 23.7866 2.55174
ltibia 47.289
lfoot -27.3876 22.5532
ltoes 5.49205
319
root -6.47325 15.605 3.34518 75.4834 36.0454 -41.6157
lowerback 24.0915 -4.03943 -8.45309
upperback -1.08568 -8.16195 -3.90838
thorax -14.2103 -3.14421 3.13799
lowerneck -33.8437 2.41317 -2.74478
upperneck 5.95616 2.42065 15.619
head 6.93023 2.93998 6.24355
rclavicle 1.08139e-013 7.95139e-014
rhumerus -1.99027 -31.3572 22.1209
rradius 33.1443
rwrist 2.27265
rhand -28.9364 -63.1313
rfingers 7.12502
rthumb -2.29026 -1346.9
lclavicle 1.08139e-013 7.95139e-014
lhumerus 53.1286 29.5387 18.3703
lradius 22.4421
lwrist 8.96839
lhand -50.9044 307.677
lfingers 7.12502
lthumb -23.4569 -23.7325
rfemur -34.8885 -13.3108 47.1295
rtibia 56.4276
rfoot -6.33322 -26.898
rtoes -1.27971
lfemur -105.824 22.6914 1.41865
ltibia 47.5377
lfoot -26.8433 22.523
ltoes 4.9727
320
root -6.52001 15.6552 3.17529 74.7983 34.8406 -40.7503
lowerback 24.91 -3.89216 -8.37946
upperback -0.87965 -8.01059 -3.86506
thorax -14.4473 -3.06219 3.16086
lowerneck -33.9135 2.22889 -3.24474
upperneck 6.21036 2.34879 15.5033
head 7.02279 2.87925 6.28445
rclavicle -9.54166e-015 6.99722e-014
rhumerus -3.982 -29.4463 22.9184
rradius 32.9726
rwrist 1.56515
rhand -29.6279 -64.7144
rfingers 7.12502
rthumb -2.95809 -1345.33
lclavicle -9.54166e-015 6.99722e-014
lhumerus 49.8216 28.3098 15.5731
lradius 23.112
lwrist 11.0353
lhand -48.7566 312.373
lfingers 7.12502
lthumb -21.3952 -18.788
rfemur -35.0346 -13.8325 47.7975
rtibia 54.8573
rfoot -4.88186 -25.2463
rtoes 0.994334
lfemur -105.204 21.6889 1.08013
ltibia 47.7809
lfoot -26.9182 22.3436
ltoes 6.52894
321
root -6.57463 15.6997 3.00308 73.9805 33.6973 -40.3343
lowerback 25.4535 -3.98049 -7.96759
upperback -0.915923 -8.11376 -4.11969
thorax -14.8929 -3.12141 2.72844
lowerneck -33.4139 2.65664 -2.37123
upperneck 6.84433 2.56961 14.7671
head 7.14744 2.92605 5.9126
rclavicle 7.63333e-014 -3.49861e-014
rhumerus -5.25289 -27.7511 22.331
rradius 32.8697
rwrist 1.80244
rhand -28.9496 -65.4548
rfingers 7.12502
rthumb -2.30299 -1344.58
lclavicle 7.63333e-014 -3.49861e-014
lhumerus 45.5422 25.8365 10.9418
lradius 24.2029
lwrist 14.4488
lhand -47.2391 317.453
lfingers 7.12502
lthumb -19.9371 -13.5492
rfemur -35.082 -13.8228 48.4881
rtibia 53.3878
rfoot -5.18206 -25.3798
rtoes -6.48871
lfemur -104.621 21.0527 1.04522
ltibia 48.106
lfoot -26.8178 22.6213
ltoes 7.56976
322
root -6.63274 15.7427 2.84289 73.1313 32.096 -40.1666
lowerback 25.7261 -3.81036 -8.23348
upperback -0.963311 -8.05147 -4.3802
thorax -15.1224 -3.07064 2.57792
lowerneck -31.4371 2.79365 -1.32396
upperneck 5.75209 2.5481 14.1349
head 6.52082 2.76776 5.39585
rclavicle 4.77083e-014 1.1609e-013
rhumerus -6.57446 -26.2101 21.7154
rradius 32.855
rwrist 1.95015
rhand -27.9364 -66.3389
rfingers 7.12502
rthumb -1.32445 -1343.69
lclavicle 4.77083e-014 1.1609e-013
lhumerus 41.7233 22.9634 6.84556
lradius 25.3263
lwrist 18.5742
lhand -45.6398 320.743
lfingers 7.12502
lthumb -18.3992 -10.1073
rfemur -35.0054 -13.4199 48.6298
rtibia 52.027
rfoot -4.59945 -24.6254
rtoes -3.40688
lfemur -103.904 20.6699 0.860812
ltibia 48.5239
lfoot -26.7424 23.3221
ltoes 8.33955
323
root -6.69162 15.7759 2.67267 72.3313 30.6796 -40.2922
lowerback 25.6486 -3.54939 -8.24768
upperback -0.956541 -7.73394 -4.51097
thorax -15.1179 -2.94261 2.3179
lowerneck -30.7736 2.51166 -1.64645
upperneck 5.62565 2.24651 14.5503
head 6.41459 2.61785 5.52129
rclavicle -2.22639e-014 7.4743e-014
rhumerus -8.04584 -25.114 21.1915
rradius 32.8294
rwrist 1.88651
rhand -27.5868 -67.0361
rfingers 7.12502
rthumb -0.986823 -1342.99
lclavicle -2.22639e-014 7.4743e-014
lhumerus 38.5585 20.1396 3.72075
lradius 26.4599
lwrist 22.9882
lhand -44.5722 323.451
lfingers 7.12502
lthumb -17.372 -7.30538
rfemur -35.0007 -12.869 48.9533
rtibia 50.7854
rfoot -4.93121 -24.4451
rtoes -3.37261
lfemur -103.332 20.5274 1.07318
ltibia 49.025
lfoot -26.6849 24.1049
ltoes 9.24554
